<svg xmlns="http://www.w3.org/2000/svg" xmlns:xlink="http://www.w3.org/1999/xlink" width="377" zoomAndPan="magnify" viewBox="0 0 283.5 566.999983" height="755" preserveAspectRatio="xMidYMid meet" version="1.0"><defs><clipPath id="78452c030a"><path d="M 67.898438 28.84375 L 215.648438 28.84375 L 215.648438 176.59375 L 67.898438 176.59375 Z M 67.898438 28.84375 " clip-rule="nonzero"/></clipPath><clipPath id="2e46460762"><path d="M 80.707031 41.128906 L 202.957031 41.128906 L 202.957031 163.378906 L 80.707031 163.378906 Z M 80.707031 41.128906 " clip-rule="nonzero"/></clipPath><clipPath id="6f10da681c"><path d="M 68.183594 391.417969 L 215.933594 391.417969 L 215.933594 539.167969 L 68.183594 539.167969 Z M 68.183594 391.417969 " clip-rule="nonzero"/></clipPath><clipPath id="e55c91600a"><path d="M 80.992188 403.699219 L 203.242188 403.699219 L 203.242188 525.949219 L 80.992188 525.949219 Z M 80.992188 403.699219 " clip-rule="nonzero"/></clipPath><clipPath id="e7c2e9f65e"><path d="M 136.21875 165 L 145.96875 165 L 145.96875 402 L 136.21875 402 Z M 136.21875 165 " clip-rule="nonzero"/></clipPath><clipPath id="ec44ca0a9e"><path d="M 136.21875 165 L 145.96875 165 L 145.96875 401 L 136.21875 401 Z M 136.21875 165 " clip-rule="nonzero"/></clipPath></defs><g clip-path="url(#78452c030a)"><path fill="#ffc200" d="M 141.773438 35.515625 C 104.714844 35.515625 74.570312 65.664062 74.570312 102.71875 C 74.570312 139.777344 104.714844 169.925781 141.773438 169.925781 C 178.832031 169.925781 208.976562 139.777344 208.976562 102.71875 C 208.976562 65.664062 178.832031 35.515625 141.773438 35.515625 Z M 141.773438 176.59375 C 101.039062 176.59375 67.902344 143.453125 67.902344 102.71875 C 67.902344 61.988281 101.039062 28.847656 141.773438 28.847656 C 182.507812 28.847656 215.644531 61.988281 215.644531 102.71875 C 215.644531 143.453125 182.507812 176.59375 141.773438 176.59375 " fill-opacity="1" fill-rule="nonzero"/></g><g clip-path="url(#2e46460762)"><path fill="#ffc200" d="M 141.832031 46.648438 C 111.171875 46.648438 86.226562 71.59375 86.226562 102.253906 C 86.226562 132.914062 111.171875 157.859375 141.832031 157.859375 C 172.492188 157.859375 197.4375 132.914062 197.4375 102.253906 C 197.4375 71.59375 172.492188 46.648438 141.832031 46.648438 Z M 141.832031 163.378906 C 108.128906 163.378906 80.710938 135.957031 80.710938 102.253906 C 80.710938 68.550781 108.128906 41.128906 141.832031 41.128906 C 175.535156 41.128906 202.957031 68.550781 202.957031 102.253906 C 202.957031 135.957031 175.535156 163.378906 141.832031 163.378906 " fill-opacity="1" fill-rule="nonzero"/></g><g clip-path="url(#6f10da681c)"><path fill="#ffc200" d="M 142.058594 398.085938 C 105 398.085938 74.851562 428.234375 74.851562 465.289062 C 74.851562 502.347656 105 532.496094 142.058594 532.496094 C 179.113281 532.496094 209.261719 502.347656 209.261719 465.289062 C 209.261719 428.234375 179.113281 398.085938 142.058594 398.085938 Z M 142.058594 539.164062 C 101.324219 539.164062 68.183594 506.023438 68.183594 465.289062 C 68.183594 424.558594 101.324219 391.417969 142.058594 391.417969 C 182.789062 391.417969 215.929688 424.558594 215.929688 465.289062 C 215.929688 506.023438 182.789062 539.164062 142.058594 539.164062 " fill-opacity="1" fill-rule="nonzero"/></g><g clip-path="url(#e55c91600a)"><path fill="#ffc200" d="M 142.117188 409.21875 C 111.453125 409.21875 86.511719 434.164062 86.511719 464.824219 C 86.511719 495.484375 111.453125 520.429688 142.117188 520.429688 C 172.777344 520.429688 197.722656 495.484375 197.722656 464.824219 C 197.722656 434.164062 172.777344 409.21875 142.117188 409.21875 Z M 142.117188 525.949219 C 108.414062 525.949219 80.992188 498.527344 80.992188 464.824219 C 80.992188 431.121094 108.414062 403.703125 142.117188 403.703125 C 175.820312 403.703125 203.238281 431.121094 203.238281 464.824219 C 203.238281 498.527344 175.820312 525.949219 142.117188 525.949219 " fill-opacity="1" fill-rule="nonzero"/></g><g clip-path="url(#e7c2e9f65e)"><path fill="#ffdd00" d="M 136.21875 401.570312 L 136.21875 165.816406 L 145.96875 165.816406 L 145.96875 401.570312 Z M 136.21875 401.570312 " fill-opacity="1" fill-rule="nonzero"/></g><g clip-path="url(#ec44ca0a9e)"><path fill="#010101" d="M 136.21875 396.109375 L 136.21875 392.023438 L 145.96875 396.164062 L 145.96875 400.25 Z M 145.96875 390.414062 L 145.96875 386.328125 L 136.21875 382.132812 L 136.21875 386.214844 Z M 145.96875 380.578125 L 145.96875 376.496094 L 136.21875 372.296875 L 136.21875 376.378906 Z M 145.96875 370.6875 L 145.96875 366.601562 L 136.21875 362.460938 L 136.21875 366.488281 Z M 145.96875 360.851562 L 145.96875 356.765625 L 136.21875 352.570312 L 136.21875 356.652344 Z M 145.96875 351.015625 L 145.96875 346.933594 L 136.21875 342.734375 L 136.21875 346.816406 Z M 145.96875 341.125 L 145.96875 337.039062 L 136.21875 332.898438 L 136.21875 336.980469 Z M 145.96875 331.289062 L 145.96875 327.203125 L 136.21875 323.007812 L 136.21875 327.089844 Z M 145.96875 321.394531 L 145.96875 317.3125 L 136.21875 313.171875 L 136.21875 317.253906 Z M 145.96875 311.5625 L 145.96875 307.476562 L 136.21875 303.335938 L 136.21875 307.417969 Z M 145.96875 301.726562 L 145.96875 297.640625 L 136.21875 293.445312 L 136.21875 297.527344 Z M 145.96875 291.832031 L 145.96875 287.75 L 136.21875 283.609375 L 136.21875 287.691406 Z M 145.96875 281.996094 L 145.96875 277.914062 L 136.21875 273.773438 L 136.21875 277.855469 Z M 145.96875 272.164062 L 145.96875 268.078125 L 136.21875 263.878906 L 136.21875 267.964844 Z M 145.96875 262.269531 L 145.96875 258.1875 L 136.21875 254.046875 L 136.21875 258.128906 Z M 145.96875 252.433594 L 145.96875 248.351562 L 136.21875 244.210938 L 136.21875 248.292969 Z M 145.96875 242.601562 L 145.96875 238.515625 L 136.21875 234.316406 L 136.21875 238.402344 Z M 145.96875 232.707031 L 145.96875 228.625 L 136.21875 224.484375 L 136.21875 228.566406 Z M 145.96875 222.871094 L 145.96875 218.789062 L 136.21875 214.648438 L 136.21875 218.675781 Z M 145.96875 213.039062 L 145.96875 208.953125 L 136.21875 204.753906 L 136.21875 208.839844 Z M 145.96875 203.144531 L 145.96875 199.0625 L 136.21875 194.921875 L 136.21875 199.003906 Z M 145.96875 193.308594 L 145.96875 189.226562 L 136.21875 185.085938 L 136.21875 189.167969 Z M 145.96875 183.476562 L 145.96875 179.390625 L 136.21875 175.191406 L 136.21875 179.277344 Z M 136.21875 169.441406 L 145.96875 173.640625 L 145.96875 169.554688 L 137.238281 165.816406 L 136.21875 165.816406 Z M 136.21875 169.441406 " fill-opacity="1" fill-rule="nonzero"/></g></svg>